<svg xmlns="http://www.w3.org/2000/svg" width="42.554" height="42.554" viewBox="0 0 42.554 42.554">
  <path id="new-twitter" d="M21.277,0A21.277,21.277,0,1,0,42.554,21.277,21.277,21.277,0,0,0,21.277,0m10.66,15.81q.016.354.016.712A15.642,15.642,0,0,1,7.872,29.7a11.172,11.172,0,0,0,1.312.077,11.036,11.036,0,0,0,6.831-2.355,5.5,5.5,0,0,1-5.138-3.82,5.51,5.51,0,0,0,2.484-.094,5.5,5.5,0,0,1-4.412-5.393v-.069a5.477,5.477,0,0,0,2.491.688,5.506,5.506,0,0,1-1.7-7.343,15.614,15.614,0,0,0,11.337,5.747,5.5,5.5,0,0,1,9.373-5.016,11.011,11.011,0,0,0,3.493-1.335,5.519,5.519,0,0,1-2.418,3.043,11,11,0,0,0,3.159-.866,11.17,11.17,0,0,1-2.745,2.847" fill="#a67cb8"/>
</svg>
