<svg xmlns="http://www.w3.org/2000/svg" width="42.554" height="42.554" viewBox="0 0 42.554 42.554">
  <g id="new-youtube" transform="translate(-0.001 0.002)">
    <path id="Path_17" data-name="Path 17" d="M2720.32,3049.8a21.277,21.277,0,1,0,21.278,21.278,21.277,21.277,0,0,0-21.278-21.278Zm13.394,22.252c-.041,3.017-.316,6.051-1.552,7.171-.478.432-.931.7-2.744.873-2.268.21-5.342.24-7.664.244h-2.876c-2.323,0-5.4-.033-7.663-.244-1.814-.168-2.267-.441-2.744-.873-1.247-1.13-1.517-4.206-1.554-7.249-.006-.571-.006-1.145,0-1.716.033-3.069.3-6.187,1.555-7.326.477-.433.93-.7,2.744-.873,2.267-.211,5.341-.24,7.663-.244h2.876c2.322,0,5.4.033,7.664.244,1.813.168,2.266.439,2.744.873,1.235,1.12,1.511,4.152,1.552,7.17q.015.978-.005,1.948Z" transform="translate(-2699.043 -3049.802)" fill="#a67cb8"/>
    <path id="Path_18" data-name="Path 18" d="M2756.96,3111.87l6.764-4.1-6.764-3.854Z" transform="translate(-2738.314 -3086.493)" fill="#a67cb8"/>
  </g>
</svg>
