<svg xmlns="http://www.w3.org/2000/svg" width="42.95" height="42.95" viewBox="0 0 42.95 42.95">
  <path id="new-cart" d="M21.475,0A21.475,21.475,0,1,1,0,21.475,21.475,21.475,0,0,1,21.475,0Zm6.89,30.886a2.136,2.136,0,1,0-2.136-2.136,2.136,2.136,0,0,0,2.136,2.136Zm-11.046,0a2.136,2.136,0,1,0-2.136-2.136,2.136,2.136,0,0,0,2.136,2.136ZM10.085,13.534a1.046,1.046,0,0,0,1.073,1.175h.171a1.683,1.683,0,0,1,1.808,1.243l.024.121h0L13.55,17.9l1.35,7.462H30.068l2.8-8.985H16.992c-.948,0-1.253-.488-1.355-.792l-.46-2.022h0l-.044-.382a1.42,1.42,0,0,0-1.553-1.118H11.651s-1.566-.042-1.566,1.3v.168Z" fill="#a67cb8"/>
</svg>
