<svg xmlns="http://www.w3.org/2000/svg" width="42.554" height="42.554" viewBox="0 0 42.554 42.554">
  <g id="new-instagram" transform="translate(0.003 0.005)">
    <circle id="Ellipse_2" data-name="Ellipse 2" cx="4.571" cy="4.571" r="4.571" transform="translate(16.712 16.611)" fill="#a67cb8"/>
    <path id="Path_14" data-name="Path 14" d="M2411.47,3081.81h-10.6a5.446,5.446,0,0,0-5.425,5.426v11.294a5.447,5.447,0,0,0,5.425,5.427h10.6a5.446,5.446,0,0,0,5.426-5.426v-11.294A5.446,5.446,0,0,0,2411.47,3081.81Zm-5.26,17.952a6.98,6.98,0,1,1,6.98-6.98,6.98,6.98,0,0,1-6.98,6.98Zm7.092-12.416a1.3,1.3,0,1,0,0-.006Z" transform="translate(-2384.896 -3071.603)" fill="#a67cb8"/>
    <path id="Path_15" data-name="Path 15" d="M2383.95,3050.11a21.277,21.277,0,1,0,21.277,21.277,21.277,21.277,0,0,0-21.277-21.277Zm12.675,26.924a7.4,7.4,0,0,1-7.375,7.374h-10.6a7.4,7.4,0,0,1-7.375-7.374v-11.295a7.4,7.4,0,0,1,7.375-7.374h10.6a7.4,7.4,0,0,1,7.375,7.374Z" transform="translate(-2362.676 -3050.115)" fill="#a67cb8"/>
  </g>
</svg>
